<svg width="20" height="20" viewBox="0 0 20 20" fill="none" xmlns="http://www.w3.org/2000/svg">
<path d="M6.21095 2.42187C6.28791 2.42183 6.36412 2.43696 6.43524 2.46638C6.50635 2.49581 6.57097 2.53895 6.6254 2.59335L13.8477 9.81601C13.9575 9.92589 14.0192 10.0749 14.0192 10.2303C14.0192 10.3856 13.9575 10.5346 13.8477 10.6445L6.62541 17.8672C6.571 17.9216 6.50642 17.9648 6.43533 17.9943C6.36424 18.0237 6.28804 18.0389 6.21109 18.0389C6.13414 18.0389 6.05794 18.0238 5.98683 17.9944C5.91573 17.9649 5.85112 17.9218 5.79669 17.8674C5.74227 17.813 5.69909 17.7484 5.66962 17.6773C5.64016 17.6062 5.62498 17.53 5.62496 17.4531C5.62495 17.3761 5.64009 17.2999 5.66952 17.2288C5.69895 17.1577 5.7421 17.0931 5.7965 17.0387L12.6047 10.2305L5.7965 3.42226C5.7145 3.34031 5.65865 3.23588 5.63602 3.12219C5.61339 3.00849 5.62499 2.89064 5.66936 2.78354C5.71373 2.67644 5.78888 2.58491 5.88528 2.52053C5.98169 2.45615 6.09503 2.42181 6.21095 2.42187Z" fill="#435664"/>
</svg>
