<svg width="40" height="40" viewBox="0 0 40 40" fill="none" xmlns="http://www.w3.org/2000/svg">
<path fill-rule="evenodd" clip-rule="evenodd" d="M19.7775 1.20752C30.32 1.20752 38.8792 9.76669 38.8792 20.31C38.8792 30.8525 30.32 39.4125 19.7775 39.4125C9.23415 39.4125 0.674988 30.8525 0.674988 20.31C0.674988 9.76669 9.23415 1.20752 19.7775 1.20752ZM7.53832 33.8675L7.95582 28.055L10.2608 23.9592L13.9442 21.5184L18.4808 20.605L24.3917 21.0742L28.4833 22.9017L31.2342 25.5725L31.8958 28.0659L32.5308 31.7034L32.1925 34.5909L27.5892 37.29L22.0883 38.6475L15.0258 38.6725L10.3392 36.5484L7.53832 33.8675ZM19.93 6.04002C23.96 6.04002 27.2317 9.31169 27.2317 13.3417C27.2317 17.3717 23.96 20.6442 19.93 20.6442C15.9 20.6442 12.6283 17.3717 12.6283 13.3417C12.6283 9.31169 15.9 6.04002 19.93 6.04002Z" fill="#435664"/>
<path d="M20 0C8.9725 0 0 8.9725 0 20C0 25.9092 2.57833 31.2267 6.66667 34.8908V34.905L6.95667 35.155C7.0075 35.1992 7.06333 35.2358 7.115 35.2792C7.47417 35.5825 7.84417 35.8733 8.22417 36.1517C8.32667 36.2267 8.42917 36.2992 8.53333 36.3717C8.93667 36.655 9.34917 36.925 9.7725 37.1783C9.84333 37.2208 9.91583 37.2608 9.98667 37.3017C10.4508 37.5717 10.925 37.8258 11.4117 38.0583C11.4167 38.0608 11.4217 38.0625 11.4267 38.065C12.4675 38.5608 13.5592 38.9667 14.6892 39.2783C14.71 39.2842 14.7308 39.2908 14.7517 39.2958C15.2858 39.4417 15.8292 39.5642 16.38 39.665C16.4317 39.6742 16.4825 39.6833 16.5342 39.6925C17.0658 39.7858 17.6042 39.86 18.15 39.9108C18.2125 39.9167 18.275 39.92 18.3367 39.925C18.8858 39.9708 19.4392 40 20 40C20.5608 40 21.1142 39.9708 21.6633 39.925C21.7258 39.92 21.7883 39.9167 21.85 39.9108C22.3958 39.8608 22.9342 39.7858 23.4658 39.6925C23.5175 39.6833 23.5683 39.6742 23.62 39.665C24.1708 39.5642 24.7142 39.4417 25.2483 39.2958C25.2692 39.29 25.29 39.2842 25.3108 39.2783C26.4408 38.9667 27.5325 38.5608 28.5733 38.065C28.5783 38.0625 28.5833 38.0608 28.5883 38.0583C29.075 37.8258 29.5492 37.5708 30.0133 37.3017C30.085 37.26 30.1567 37.2208 30.2275 37.1783C30.6517 36.925 31.0642 36.6542 31.4667 36.3717C31.57 36.2992 31.6733 36.2267 31.7758 36.1517C32.1558 35.8733 32.5258 35.5825 32.885 35.2792C32.9367 35.2358 32.9925 35.1992 33.0433 35.155L33.3333 34.905V34.8908C37.4217 31.2258 40 25.9092 40 20C40 8.9725 31.0275 0 20 0ZM20 20C16.3242 20 13.3333 17.0092 13.3333 13.3333C13.3333 9.6575 16.3242 6.66667 20 6.66667C23.6758 6.66667 26.6667 9.6575 26.6667 13.3333C26.6667 17.0092 23.6758 20 20 20ZM22.5 21.6667C27.5542 21.6667 31.6667 25.7792 31.6667 30.8333V34.1317C31.6317 34.1608 31.595 34.1875 31.56 34.2167C31.2308 34.4842 30.8933 34.7383 30.5483 34.9817C30.4717 35.0358 30.3967 35.0917 30.32 35.1442C29.9475 35.3983 29.565 35.6367 29.1758 35.8625C29.105 35.9042 29.0333 35.945 28.9617 35.9858C28.5533 36.215 28.1375 36.43 27.7133 36.6267C27.6692 36.6475 27.6242 36.6675 27.5792 36.6875C26.195 37.3167 24.7367 37.7725 23.2358 38.0425C23.1883 38.0508 23.1408 38.06 23.0933 38.0683C22.6208 38.1492 22.1442 38.2117 21.6642 38.2558C21.5983 38.2617 21.5317 38.2658 21.465 38.2708C20.9792 38.3083 20.4908 38.3333 20 38.3333C19.5092 38.3333 19.0208 38.3083 18.535 38.2692C18.4692 38.2642 18.4025 38.26 18.3358 38.2542C17.8558 38.21 17.3792 38.1483 16.9067 38.0667C16.8592 38.0583 16.8117 38.05 16.7642 38.0408C15.2633 37.7708 13.805 37.315 12.4208 36.6858C12.3758 36.665 12.3308 36.6458 12.2867 36.625C11.8625 36.4283 11.4467 36.2133 11.0383 35.9842C10.9667 35.9433 10.8958 35.9025 10.8242 35.8608C10.435 35.6358 10.0525 35.3967 9.68 35.1425C9.6025 35.09 9.5275 35.0342 9.45167 34.98C9.10667 34.7367 8.76917 34.4833 8.44 34.215C8.405 34.1867 8.36833 34.1592 8.33333 34.13V30.8333C8.33333 25.7792 12.4458 21.6667 17.5 21.6667H22.5ZM33.3333 32.5633V30.8333C33.3333 25.6075 29.6133 21.2342 24.6833 20.2208C26.8842 18.72 28.3333 16.1925 28.3333 13.3333C28.3333 8.73833 24.595 5 20 5C15.405 5 11.6667 8.73833 11.6667 13.3333C11.6667 16.1925 13.1158 18.72 15.3167 20.2208C10.3867 21.2342 6.66667 25.6075 6.66667 30.8333V32.5633C3.57 29.2792 1.66667 24.8592 1.66667 20C1.66667 9.89083 9.89083 1.66667 20 1.66667C30.1092 1.66667 38.3333 9.89083 38.3333 20C38.3333 24.8592 36.43 29.2792 33.3333 32.5633Z" fill="#435664"/>
</svg>
