<svg width="20" height="20" viewBox="0 0 20 20" fill="none" xmlns="http://www.w3.org/2000/svg">
<path d="M17.5781 6.21094C17.5781 6.2879 17.563 6.36411 17.5336 6.43522C17.5042 6.50634 17.461 6.57095 17.4066 6.62539L10.184 13.8477C10.0741 13.9575 9.92507 14.0192 9.7697 14.0192C9.61433 14.0192 9.46533 13.9575 9.35545 13.8477L2.13279 6.62539C2.07836 6.57099 2.03518 6.5064 2.00572 6.43531C1.97625 6.36422 1.96108 6.28803 1.96106 6.21108C1.96104 6.13412 1.97618 6.05792 2.00561 5.98682C2.03504 5.91572 2.07819 5.85111 2.13259 5.79668C2.18699 5.74225 2.25158 5.69907 2.32267 5.66961C2.39376 5.64014 2.46996 5.62497 2.54691 5.62495C2.62386 5.62493 2.70006 5.64007 2.77117 5.6695C2.84227 5.69893 2.90688 5.74208 2.9613 5.79648L9.76951 12.6047L16.5777 5.79649C16.6597 5.71449 16.7641 5.65864 16.8778 5.63601C16.9915 5.61338 17.1093 5.62498 17.2164 5.66935C17.3235 5.71372 17.4151 5.78886 17.4794 5.88527C17.5438 5.98168 17.5782 6.09501 17.5781 6.21094Z" fill="#435664"/>
</svg>
